<?xml version="1.0" standalone="no"?>
<!DOCTYPE svg PUBLIC "-//W3C//DTD SVG 20010904//EN"
 "http://www.w3.org/TR/2001/REC-SVG-20010904/DTD/svg10.dtd">
<svg version="1.0" xmlns="http://www.w3.org/2000/svg"
 width="160.000000pt" height="160.000000pt" viewBox="0 0 160.000000 160.000000"
 preserveAspectRatio="xMidYMid meet">
<metadata>
Created by potrace 1.14, written by Peter Selinger 2001-2017
</metadata>
<g transform="translate(0.000000,160.000000) scale(0.100000,-0.100000)"
fill="#000000" stroke="none">
<path d="M420 1340 c-19 -19 -20 -33 -20 -538 0 -432 2 -521 14 -538 12 -16
28 -19 101 -20 131 -2 125 -14 125 258 l0 223 127 -2 c71 -1 143 -2 161 -2
l32 -1 0 -218 c0 -172 3 -222 14 -237 12 -17 28 -20 101 -21 137 -3 125 -58
125 556 0 612 11 560 -120 560 -124 0 -120 8 -120 -259 l0 -219 -160 0 -160 0
0 219 c0 267 4 259 -120 259 -67 0 -83 -3 -100 -20z"/>
<path d="M100 1180 c-18 -18 -20 -33 -20 -160 l0 -140 -40 0 -41 0 3 -77 3
-78 38 -3 37 -3 0 -138 c0 -176 -1 -175 114 -178 135 -4 126 -34 126 395 0
307 -2 361 -16 380 -14 20 -24 22 -100 22 -71 0 -87 -3 -104 -20z"/>
<path d="M1296 1178 c-23 -32 -24 -723 -2 -754 12 -16 29 -19 100 -22 125 -3
126 -1 126 177 l0 140 38 3 37 3 3 69 c2 38 -1 73 -6 78 -5 5 -23 10 -41 10
l-31 1 0 139 c0 176 -2 178 -124 178 -76 0 -86 -2 -100 -22z"/>
</g>
</svg>
