<svg width="160" height="112" viewBox="0 0 160 112" fill="none" xmlns="http://www.w3.org/2000/svg">
<path d="M26 15.9707H14C10.675 15.9707 8 18.6408 8 21.9597V47.9121H2C0.9 47.9121 0 48.8104 0 49.9084V61.8864C0 62.9844 0.9 63.8828 2 63.8828H8V89.8352C8 93.1541 10.675 95.8242 14 95.8242H26C29.325 95.8242 32 93.1541 32 89.8352V21.9597C32 18.6408 29.325 15.9707 26 15.9707ZM158 47.9121H152V21.9597C152 18.6408 149.325 15.9707 146 15.9707H134C130.675 15.9707 128 18.6408 128 21.9597V89.8352C128 93.1541 130.675 95.8242 134 95.8242H146C149.325 95.8242 152 93.1541 152 89.8352V63.8828H158C159.1 63.8828 160 62.9844 160 61.8864V49.9084C160 48.8104 159.1 47.9121 158 47.9121ZM114 0H102C98.675 0 96 2.6701 96 5.98901V47.9121H64V5.98901C64 2.6701 61.325 0 58 0H46C42.675 0 40 2.6701 40 5.98901V105.806C40 109.125 42.675 111.795 46 111.795H58C61.325 111.795 64 109.125 64 105.806V63.8828H96V105.806C96 109.125 98.675 111.795 102 111.795H114C117.325 111.795 120 109.125 120 105.806V5.98901C120 2.6701 117.325 0 114 0Z" fill="#4064F7"/>
</svg>
